<svg xmlns="http://www.w3.org/2000/svg" version="1.1" xmlns:xlink="http://www.w3.org/1999/xlink" xmlns:svgjs="http://svgjs.com/svgjs" width="1920" height="1080" preserveAspectRatio="none" viewBox="0 0 1920 1080"><g mask="url(&quot;#SvgjsMask1123&quot;)" fill="none"><rect width="1920" height="1080" x="0" y="0" fill="rgba(36, 40, 47, 1)"></rect><path d="M0,855.588C155.816,832.863,261.825,698.441,397.505,618.529C540.211,534.479,744.079,521.764,818.23,373.673C892.335,225.672,816.483,46.748,762.07,-109.569C715.155,-244.348,630.727,-358.338,528.693,-458.115C433.302,-551.395,321.616,-622.047,194.996,-664.096C64.884,-707.305,-69.179,-707.572,-206.171,-702.154C-384.168,-695.114,-583.373,-736.509,-724.44,-627.731C-869.395,-515.955,-921.282,-317.285,-941.245,-135.331C-960.818,43.071,-918.379,222.393,-835.156,381.403C-754.772,534.988,-630.472,660.88,-479.727,746.47C-334.169,829.115,-165.632,879.745,0,855.588" fill="#1f2228"></path><path d="M1920 1735.589C2090.818 1756.542 2268.324 1940.324 2413.286 1847.568 2558.143 1754.879 2478.32 1520.4 2517.866 1353.036 2548.122 1224.9850000000001 2620.817 1111.143 2618.376 979.5889999999999 2615.718 836.3389999999999 2603.866 676.6320000000001 2503.4210000000003 574.463 2403.872 473.206 2232.641 514.32 2103.314 455.68899999999996 1943.219 383.11 1833.371 168.15499999999997 1659.179 191.72400000000005 1490.373 214.56399999999996 1425.279 426.323 1321.574 561.461 1224.442 688.034 1105.867 802.2280000000001 1071.17 957.957 1035.0610000000001 1120.022 1045.143 1297.505 1125.1660000000002 1442.988 1202.963 1584.425 1347.319 1679.632 1498.8020000000001 1735.397 1633.281 1784.903 1777.7640000000001 1718.142 1920 1735.589" fill="#292e36"></path></g><defs><mask id="SvgjsMask1123"><rect width="1920" height="1080" fill="#ffffff"></rect></mask></defs></svg>